<svg width="335" height="144" viewBox="0 0 335 144" fill="none" xmlns="http://www.w3.org/2000/svg">
<rect width="335" height="144" fill="white" fill-opacity="0.88"/>
<path d="M11.512 23.864H23.032V24.776H12.568V31.64H22.408V32.552H12.568V40.088H23.152V41H11.512V23.864ZM27.8717 31.496H27.9197C28.0157 31.192 28.1757 30.856 28.3997 30.488C28.6237 30.12 28.9197 29.784 29.2877 29.48C29.6557 29.16 30.0957 28.896 30.6077 28.688C31.1357 28.48 31.7357 28.376 32.4077 28.376C33.3517 28.376 34.1677 28.552 34.8557 28.904C35.5597 29.256 36.1357 29.728 36.5837 30.32C37.0477 30.912 37.3917 31.6 37.6157 32.384C37.8397 33.168 37.9517 33.992 37.9517 34.856C37.9517 35.8 37.8397 36.664 37.6157 37.448C37.3917 38.232 37.0477 38.912 36.5837 39.488C36.1357 40.048 35.5597 40.488 34.8557 40.808C34.1677 41.128 33.3517 41.288 32.4077 41.288C31.3837 41.288 30.4717 41.064 29.6717 40.616C28.8717 40.168 28.2877 39.44 27.9197 38.432H27.8717V45.416H26.9597V28.664H27.8717V31.496ZM32.4077 40.496C33.2077 40.496 33.8957 40.344 34.4717 40.04C35.0637 39.736 35.5437 39.328 35.9117 38.816C36.2957 38.304 36.5757 37.712 36.7517 37.04C36.9437 36.352 37.0397 35.624 37.0397 34.856C37.0397 34.152 36.9517 33.464 36.7757 32.792C36.5997 32.104 36.3277 31.496 35.9597 30.968C35.5917 30.424 35.1117 29.992 34.5197 29.672C33.9437 29.336 33.2397 29.168 32.4077 29.168C31.5917 29.168 30.8957 29.328 30.3197 29.648C29.7437 29.968 29.2717 30.392 28.9037 30.92C28.5517 31.448 28.2957 32.056 28.1357 32.744C27.9757 33.416 27.8957 34.12 27.8957 34.856C27.8957 35.592 27.9677 36.304 28.1117 36.992C28.2557 37.664 28.4957 38.264 28.8317 38.792C29.1837 39.304 29.6477 39.72 30.2237 40.04C30.8157 40.344 31.5437 40.496 32.4077 40.496ZM42.2656 26.336V23.864H43.1776V26.336H42.2656ZM42.2656 41V28.664H43.1776V41H42.2656ZM57.3389 32.48C57.2909 31.936 57.1469 31.456 56.9069 31.04C56.6829 30.624 56.3869 30.28 56.0189 30.008C55.6509 29.736 55.2189 29.528 54.7229 29.384C54.2429 29.24 53.7229 29.168 53.1629 29.168C52.3949 29.168 51.7149 29.328 51.1229 29.648C50.5309 29.952 50.0349 30.368 49.6349 30.896C49.2349 31.408 48.9309 32 48.7229 32.672C48.5149 33.328 48.4109 34.008 48.4109 34.712C48.4109 35.544 48.5069 36.312 48.6989 37.016C48.8909 37.72 49.1869 38.336 49.5869 38.864C49.9869 39.376 50.4829 39.776 51.0749 40.064C51.6669 40.352 52.3629 40.496 53.1629 40.496C53.7389 40.496 54.2669 40.4 54.7469 40.208C55.2429 40.016 55.6749 39.752 56.0429 39.416C56.4269 39.08 56.7389 38.68 56.9789 38.216C57.2189 37.736 57.3789 37.216 57.4589 36.656H58.3709C58.2749 37.392 58.0749 38.048 57.7709 38.624C57.4669 39.2 57.0829 39.688 56.6189 40.088C56.1549 40.472 55.6269 40.768 55.0349 40.976C54.4429 41.184 53.8189 41.288 53.1629 41.288C52.1549 41.288 51.2909 41.112 50.5709 40.76C49.8669 40.392 49.2829 39.904 48.8189 39.296C48.3709 38.688 48.0349 37.992 47.8109 37.208C47.6029 36.408 47.4989 35.576 47.4989 34.712C47.4989 33.848 47.6189 33.032 47.8589 32.264C48.1149 31.496 48.4829 30.824 48.9629 30.248C49.4429 29.672 50.0349 29.216 50.7389 28.88C51.4429 28.544 52.2509 28.376 53.1629 28.376C53.8349 28.376 54.4589 28.464 55.0349 28.64C55.6269 28.8 56.1469 29.048 56.5949 29.384C57.0589 29.72 57.4349 30.152 57.7229 30.68C58.0109 31.192 58.1869 31.792 58.2509 32.48H57.3389ZM72.2342 41H71.3222V38.36H71.2742C71.1142 38.824 70.8822 39.24 70.5782 39.608C70.2902 39.96 69.9462 40.264 69.5462 40.52C69.1622 40.776 68.7382 40.968 68.2742 41.096C67.8102 41.224 67.3382 41.288 66.8582 41.288C66.1382 41.288 65.5222 41.2 65.0102 41.024C64.5142 40.848 64.1062 40.616 63.7862 40.328C63.4662 40.04 63.2102 39.72 63.0182 39.368C62.8422 39 62.7142 38.632 62.6342 38.264C62.5542 37.896 62.5062 37.544 62.4902 37.208C62.4742 36.856 62.4662 36.552 62.4662 36.296V28.664H63.3782V36.464C63.3782 36.784 63.4022 37.176 63.4502 37.64C63.4982 38.088 63.6342 38.528 63.8582 38.96C64.0982 39.376 64.4502 39.736 64.9142 40.04C65.3782 40.344 66.0342 40.496 66.8822 40.496C67.5702 40.496 68.1862 40.368 68.7302 40.112C69.2902 39.856 69.7622 39.504 70.1462 39.056C70.5302 38.592 70.8182 38.048 71.0102 37.424C71.2182 36.784 71.3222 36.088 71.3222 35.336V28.664H72.2342V41ZM77.7935 31.4H77.8655C77.9775 31 78.1775 30.624 78.4655 30.272C78.7695 29.92 79.1295 29.616 79.5455 29.36C79.9775 29.104 80.4495 28.912 80.9615 28.784C81.4895 28.64 82.0335 28.576 82.5935 28.592V29.504C82.1135 29.44 81.5615 29.488 80.9375 29.648C80.3295 29.808 79.7455 30.16 79.1855 30.704C78.9615 30.944 78.7615 31.176 78.5855 31.4C78.4255 31.624 78.2895 31.872 78.1775 32.144C78.0655 32.416 77.9775 32.72 77.9135 33.056C77.8495 33.392 77.8095 33.792 77.7935 34.256V41H76.8815V28.664H77.7935V31.4ZM85.6099 34.952V35.096C85.6099 35.816 85.7059 36.504 85.8979 37.16C86.0899 37.816 86.3699 38.392 86.7379 38.888C87.1219 39.384 87.5939 39.776 88.1539 40.064C88.7299 40.352 89.3939 40.496 90.1459 40.496C91.3779 40.496 92.3539 40.176 93.0739 39.536C93.7939 38.88 94.2899 37.976 94.5619 36.824H95.4739C95.2019 38.264 94.6099 39.368 93.6979 40.136C92.8019 40.904 91.6099 41.288 90.1219 41.288C89.2099 41.288 88.4099 41.128 87.7219 40.808C87.0499 40.472 86.4819 40.024 86.0179 39.464C85.5699 38.888 85.2339 38.216 85.0099 37.448C84.7859 36.664 84.6739 35.824 84.6739 34.928C84.6739 34.064 84.7859 33.24 85.0099 32.456C85.2499 31.656 85.6019 30.96 86.0659 30.368C86.5299 29.76 87.1059 29.28 87.7939 28.928C88.4979 28.56 89.3219 28.376 90.2659 28.376C91.1299 28.376 91.8899 28.536 92.5459 28.856C93.2179 29.176 93.7779 29.616 94.2259 30.176C94.6739 30.72 95.0099 31.36 95.2339 32.096C95.4739 32.816 95.5939 33.592 95.5939 34.424C95.5939 34.504 95.5859 34.6 95.5699 34.712C95.5699 34.808 95.5699 34.888 95.5699 34.952H85.6099ZM94.6579 34.16C94.6259 33.488 94.5139 32.856 94.3219 32.264C94.1299 31.656 93.8419 31.128 93.4579 30.68C93.0899 30.216 92.6339 29.848 92.0899 29.576C91.5619 29.304 90.9539 29.168 90.2659 29.168C89.5299 29.168 88.8819 29.312 88.3219 29.6C87.7619 29.872 87.2899 30.24 86.9059 30.704C86.5219 31.152 86.2259 31.68 86.0179 32.288C85.8099 32.896 85.6819 33.52 85.6339 34.16H94.6579ZM111.387 39.944H111.435L114.795 28.664H116.019L119.403 39.944H119.451L122.907 28.664H123.915L119.955 41H118.827L115.443 29.816H115.395L111.987 41H110.835L106.923 28.664H107.907L111.387 39.944ZM126.607 34.832C126.607 33.952 126.727 33.128 126.967 32.36C127.223 31.576 127.591 30.888 128.071 30.296C128.551 29.704 129.143 29.24 129.847 28.904C130.551 28.552 131.359 28.376 132.271 28.376C133.183 28.376 133.991 28.552 134.695 28.904C135.399 29.24 135.991 29.704 136.471 30.296C136.951 30.888 137.311 31.576 137.551 32.36C137.807 33.128 137.935 33.952 137.935 34.832C137.935 35.712 137.807 36.544 137.551 37.328C137.311 38.112 136.951 38.8 136.471 39.392C135.991 39.968 135.399 40.432 134.695 40.784C133.991 41.12 133.183 41.288 132.271 41.288C131.359 41.288 130.551 41.12 129.847 40.784C129.143 40.432 128.551 39.968 128.071 39.392C127.591 38.8 127.223 38.112 126.967 37.328C126.727 36.544 126.607 35.712 126.607 34.832ZM127.519 34.832C127.519 35.568 127.623 36.28 127.831 36.968C128.039 37.64 128.343 38.24 128.743 38.768C129.143 39.296 129.639 39.72 130.231 40.04C130.823 40.344 131.503 40.496 132.271 40.496C133.039 40.496 133.719 40.344 134.311 40.04C134.903 39.72 135.399 39.296 135.799 38.768C136.199 38.24 136.503 37.64 136.711 36.968C136.919 36.28 137.023 35.568 137.023 34.832C137.023 34.096 136.919 33.392 136.711 32.72C136.503 32.032 136.199 31.424 135.799 30.896C135.399 30.368 134.903 29.952 134.311 29.648C133.719 29.328 133.039 29.168 132.271 29.168C131.503 29.168 130.823 29.328 130.231 29.648C129.639 29.952 129.143 30.368 128.743 30.896C128.343 31.424 128.039 32.032 127.831 32.72C127.623 33.392 127.519 34.096 127.519 34.832ZM142.956 31.4H143.028C143.14 31 143.34 30.624 143.628 30.272C143.932 29.92 144.292 29.616 144.708 29.36C145.14 29.104 145.612 28.912 146.124 28.784C146.652 28.64 147.196 28.576 147.756 28.592V29.504C147.276 29.44 146.724 29.488 146.1 29.648C145.492 29.808 144.908 30.16 144.348 30.704C144.124 30.944 143.924 31.176 143.748 31.4C143.588 31.624 143.452 31.872 143.34 32.144C143.228 32.416 143.14 32.72 143.076 33.056C143.012 33.392 142.972 33.792 142.956 34.256V41H142.044V28.664H142.956V31.4ZM150.742 23.864H151.654V35.216L159.262 28.664H160.582L155.182 33.272L160.966 41H159.718L154.462 33.968L151.654 36.344V41H150.742V23.864ZM164.205 36.896C164.237 37.472 164.365 37.984 164.589 38.432C164.813 38.864 165.101 39.24 165.453 39.56C165.821 39.864 166.245 40.096 166.725 40.256C167.205 40.416 167.725 40.496 168.285 40.496C168.685 40.496 169.109 40.464 169.557 40.4C170.021 40.32 170.445 40.184 170.829 39.992C171.229 39.8 171.557 39.536 171.813 39.2C172.069 38.848 172.197 38.408 172.197 37.88C172.197 37.192 171.989 36.672 171.573 36.32C171.157 35.968 170.629 35.696 169.989 35.504C169.365 35.312 168.685 35.16 167.949 35.048C167.229 34.92 166.549 34.736 165.909 34.496C165.285 34.256 164.765 33.92 164.349 33.488C163.933 33.04 163.725 32.392 163.725 31.544C163.725 30.936 163.861 30.432 164.133 30.032C164.405 29.616 164.749 29.288 165.165 29.048C165.597 28.808 166.077 28.64 166.605 28.544C167.133 28.432 167.661 28.376 168.189 28.376C168.829 28.376 169.429 28.448 169.989 28.592C170.549 28.736 171.029 28.968 171.429 29.288C171.845 29.608 172.165 30.016 172.389 30.512C172.629 31.008 172.749 31.608 172.749 32.312H171.837C171.837 31.752 171.741 31.272 171.549 30.872C171.373 30.472 171.117 30.152 170.781 29.912C170.461 29.656 170.077 29.472 169.629 29.36C169.181 29.232 168.701 29.168 168.189 29.168C167.773 29.168 167.349 29.208 166.917 29.288C166.501 29.368 166.125 29.504 165.789 29.696C165.453 29.888 165.173 30.136 164.949 30.44C164.741 30.744 164.637 31.112 164.637 31.544C164.637 32.04 164.757 32.44 164.997 32.744C165.237 33.048 165.549 33.296 165.933 33.488C166.333 33.664 166.773 33.808 167.253 33.92C167.749 34.032 168.245 34.144 168.741 34.256C169.349 34.368 169.917 34.504 170.445 34.664C170.989 34.808 171.453 35.016 171.837 35.288C172.237 35.544 172.549 35.88 172.773 36.296C172.997 36.712 173.109 37.24 173.109 37.88C173.109 38.552 172.957 39.104 172.653 39.536C172.349 39.968 171.965 40.32 171.501 40.592C171.037 40.848 170.517 41.024 169.941 41.12C169.381 41.232 168.829 41.288 168.285 41.288C167.581 41.288 166.925 41.192 166.317 41C165.725 40.824 165.205 40.552 164.757 40.184C164.309 39.8 163.957 39.336 163.701 38.792C163.445 38.248 163.309 37.616 163.293 36.896H164.205ZM189.019 39.944H189.067L192.427 28.664H193.651L197.035 39.944H197.083L200.539 28.664H201.547L197.587 41H196.459L193.075 29.816H193.027L189.619 41H188.467L184.555 28.664H185.539L189.019 39.944ZM205.032 26.336V23.864H205.944V26.336H205.032ZM205.032 41V28.664H205.944V41H205.032ZM215.353 29.456H212.665V38.072C212.665 38.568 212.721 38.96 212.833 39.248C212.945 39.536 213.113 39.76 213.337 39.92C213.577 40.064 213.857 40.152 214.177 40.184C214.513 40.216 214.897 40.224 215.329 40.208V41C214.865 41.032 214.409 41.032 213.961 41C213.529 40.952 213.145 40.832 212.809 40.64C212.473 40.432 212.201 40.128 211.993 39.728C211.801 39.328 211.721 38.776 211.753 38.072V29.456H209.473V28.664H211.753V24.824H212.665V28.664H215.353V29.456ZM219.91 23.864V31.304H219.958C220.118 30.84 220.342 30.432 220.63 30.08C220.934 29.712 221.278 29.4 221.662 29.144C222.062 28.888 222.494 28.696 222.958 28.568C223.422 28.44 223.894 28.376 224.374 28.376C225.094 28.376 225.702 28.464 226.198 28.64C226.71 28.816 227.126 29.048 227.446 29.336C227.766 29.624 228.014 29.952 228.19 30.32C228.382 30.672 228.518 31.032 228.598 31.4C228.678 31.768 228.726 32.128 228.742 32.48C228.758 32.816 228.766 33.112 228.766 33.368V41H227.854V33.2C227.854 32.896 227.83 32.512 227.782 32.048C227.734 31.584 227.59 31.144 227.35 30.728C227.126 30.296 226.774 29.928 226.294 29.624C225.83 29.32 225.182 29.168 224.35 29.168C223.646 29.168 223.022 29.296 222.478 29.552C221.934 29.808 221.47 30.168 221.086 30.632C220.702 31.08 220.406 31.624 220.198 32.264C220.006 32.888 219.91 33.576 219.91 34.328V41H218.998V23.864H219.91ZM246.599 29.456H243.911V38.072C243.911 38.568 243.967 38.96 244.079 39.248C244.191 39.536 244.359 39.76 244.583 39.92C244.823 40.064 245.103 40.152 245.423 40.184C245.759 40.216 246.143 40.224 246.575 40.208V41C246.111 41.032 245.655 41.032 245.207 41C244.775 40.952 244.391 40.832 244.055 40.64C243.719 40.432 243.447 40.128 243.239 39.728C243.047 39.328 242.967 38.776 242.999 38.072V29.456H240.719V28.664H242.999V24.824H243.911V28.664H246.599V29.456ZM251.156 23.864V31.304H251.204C251.364 30.84 251.588 30.432 251.876 30.08C252.18 29.712 252.524 29.4 252.908 29.144C253.308 28.888 253.74 28.696 254.204 28.568C254.668 28.44 255.14 28.376 255.62 28.376C256.34 28.376 256.948 28.464 257.444 28.64C257.956 28.816 258.372 29.048 258.692 29.336C259.012 29.624 259.26 29.952 259.436 30.32C259.628 30.672 259.764 31.032 259.844 31.4C259.924 31.768 259.972 32.128 259.988 32.48C260.004 32.816 260.012 33.112 260.012 33.368V41H259.1V33.2C259.1 32.896 259.076 32.512 259.028 32.048C258.98 31.584 258.836 31.144 258.596 30.728C258.372 30.296 258.02 29.928 257.54 29.624C257.076 29.32 256.428 29.168 255.596 29.168C254.892 29.168 254.268 29.296 253.724 29.552C253.18 29.808 252.716 30.168 252.332 30.632C251.948 31.08 251.652 31.624 251.444 32.264C251.252 32.888 251.156 33.576 251.156 34.328V41H250.244V23.864H251.156ZM265.019 34.952V35.096C265.019 35.816 265.115 36.504 265.307 37.16C265.499 37.816 265.779 38.392 266.147 38.888C266.531 39.384 267.003 39.776 267.563 40.064C268.139 40.352 268.803 40.496 269.555 40.496C270.787 40.496 271.763 40.176 272.483 39.536C273.203 38.88 273.699 37.976 273.971 36.824H274.883C274.611 38.264 274.019 39.368 273.107 40.136C272.211 40.904 271.019 41.288 269.531 41.288C268.619 41.288 267.819 41.128 267.131 40.808C266.459 40.472 265.891 40.024 265.427 39.464C264.979 38.888 264.643 38.216 264.419 37.448C264.195 36.664 264.083 35.824 264.083 34.928C264.083 34.064 264.195 33.24 264.419 32.456C264.659 31.656 265.011 30.96 265.475 30.368C265.939 29.76 266.515 29.28 267.203 28.928C267.907 28.56 268.731 28.376 269.675 28.376C270.539 28.376 271.299 28.536 271.955 28.856C272.627 29.176 273.187 29.616 273.635 30.176C274.083 30.72 274.419 31.36 274.643 32.096C274.883 32.816 275.003 33.592 275.003 34.424C275.003 34.504 274.995 34.6 274.979 34.712C274.979 34.808 274.979 34.888 274.979 34.952H265.019ZM274.067 34.16C274.035 33.488 273.923 32.856 273.731 32.264C273.539 31.656 273.251 31.128 272.867 30.68C272.499 30.216 272.043 29.848 271.499 29.576C270.971 29.304 270.363 29.168 269.675 29.168C268.939 29.168 268.291 29.312 267.731 29.6C267.171 29.872 266.699 30.24 266.315 30.704C265.931 31.152 265.635 31.68 265.427 32.288C265.219 32.896 265.091 33.52 265.043 34.16H274.067ZM292.26 29.456H289.572V38.072C289.572 38.568 289.628 38.96 289.74 39.248C289.852 39.536 290.02 39.76 290.244 39.92C290.484 40.064 290.764 40.152 291.084 40.184C291.42 40.216 291.804 40.224 292.236 40.208V41C291.772 41.032 291.316 41.032 290.868 41C290.436 40.952 290.052 40.832 289.716 40.64C289.38 40.432 289.108 40.128 288.9 39.728C288.708 39.328 288.628 38.776 288.66 38.072V29.456H286.38V28.664H288.66V24.824H289.572V28.664H292.26V29.456ZM295.001 34.832C295.001 33.952 295.121 33.128 295.361 32.36C295.617 31.576 295.985 30.888 296.465 30.296C296.945 29.704 297.537 29.24 298.241 28.904C298.945 28.552 299.753 28.376 300.665 28.376C301.577 28.376 302.385 28.552 303.089 28.904C303.793 29.24 304.385 29.704 304.865 30.296C305.345 30.888 305.705 31.576 305.945 32.36C306.201 33.128 306.329 33.952 306.329 34.832C306.329 35.712 306.201 36.544 305.945 37.328C305.705 38.112 305.345 38.8 304.865 39.392C304.385 39.968 303.793 40.432 303.089 40.784C302.385 41.12 301.577 41.288 300.665 41.288C299.753 41.288 298.945 41.12 298.241 40.784C297.537 40.432 296.945 39.968 296.465 39.392C295.985 38.8 295.617 38.112 295.361 37.328C295.121 36.544 295.001 35.712 295.001 34.832ZM295.913 34.832C295.913 35.568 296.017 36.28 296.225 36.968C296.433 37.64 296.737 38.24 297.137 38.768C297.537 39.296 298.033 39.72 298.625 40.04C299.217 40.344 299.897 40.496 300.665 40.496C301.433 40.496 302.113 40.344 302.705 40.04C303.297 39.72 303.793 39.296 304.193 38.768C304.593 38.24 304.897 37.64 305.105 36.968C305.313 36.28 305.417 35.568 305.417 34.832C305.417 34.096 305.313 33.392 305.105 32.72C304.897 32.032 304.593 31.424 304.193 30.896C303.793 30.368 303.297 29.952 302.705 29.648C302.113 29.328 301.433 29.168 300.665 29.168C299.897 29.168 299.217 29.328 298.625 29.648C298.033 29.952 297.537 30.368 297.137 30.896C296.737 31.424 296.433 32.032 296.225 32.72C296.017 33.392 295.913 34.096 295.913 34.832ZM311.566 31.496H311.614C311.71 31.192 311.87 30.856 312.094 30.488C312.318 30.12 312.614 29.784 312.982 29.48C313.35 29.16 313.79 28.896 314.302 28.688C314.83 28.48 315.43 28.376 316.102 28.376C317.046 28.376 317.862 28.552 318.55 28.904C319.254 29.256 319.83 29.728 320.278 30.32C320.742 30.912 321.086 31.6 321.31 32.384C321.534 33.168 321.646 33.992 321.646 34.856C321.646 35.8 321.534 36.664 321.31 37.448C321.086 38.232 320.742 38.912 320.278 39.488C319.83 40.048 319.254 40.488 318.55 40.808C317.862 41.128 317.046 41.288 316.102 41.288C315.078 41.288 314.166 41.064 313.366 40.616C312.566 40.168 311.982 39.44 311.614 38.432H311.566V45.416H310.654V28.664H311.566V31.496ZM316.102 40.496C316.902 40.496 317.59 40.344 318.166 40.04C318.758 39.736 319.238 39.328 319.606 38.816C319.99 38.304 320.27 37.712 320.446 37.04C320.638 36.352 320.734 35.624 320.734 34.856C320.734 34.152 320.646 33.464 320.47 32.792C320.294 32.104 320.022 31.496 319.654 30.968C319.286 30.424 318.806 29.992 318.214 29.672C317.638 29.336 316.934 29.168 316.102 29.168C315.286 29.168 314.59 29.328 314.014 29.648C313.438 29.968 312.966 30.392 312.598 30.92C312.246 31.448 311.99 32.056 311.83 32.744C311.67 33.416 311.59 34.12 311.59 34.856C311.59 35.592 311.662 36.304 311.806 36.992C311.95 37.664 312.19 38.264 312.526 38.792C312.878 39.304 313.342 39.72 313.918 40.04C314.51 40.344 315.238 40.496 316.102 40.496ZM20.632 64.48C20.584 63.936 20.44 63.456 20.2 63.04C19.976 62.624 19.68 62.28 19.312 62.008C18.944 61.736 18.512 61.528 18.016 61.384C17.536 61.24 17.016 61.168 16.456 61.168C15.688 61.168 15.008 61.328 14.416 61.648C13.824 61.952 13.328 62.368 12.928 62.896C12.528 63.408 12.224 64 12.016 64.672C11.808 65.328 11.704 66.008 11.704 66.712C11.704 67.544 11.8 68.312 11.992 69.016C12.184 69.72 12.48 70.336 12.88 70.864C13.28 71.376 13.776 71.776 14.368 72.064C14.96 72.352 15.656 72.496 16.456 72.496C17.032 72.496 17.56 72.4 18.04 72.208C18.536 72.016 18.968 71.752 19.336 71.416C19.72 71.08 20.032 70.68 20.272 70.216C20.512 69.736 20.672 69.216 20.752 68.656H21.664C21.568 69.392 21.368 70.048 21.064 70.624C20.76 71.2 20.376 71.688 19.912 72.088C19.448 72.472 18.92 72.768 18.328 72.976C17.736 73.184 17.112 73.288 16.456 73.288C15.448 73.288 14.584 73.112 13.864 72.76C13.16 72.392 12.576 71.904 12.112 71.296C11.664 70.688 11.328 69.992 11.104 69.208C10.896 68.408 10.792 67.576 10.792 66.712C10.792 65.848 10.912 65.032 11.152 64.264C11.408 63.496 11.776 62.824 12.256 62.248C12.736 61.672 13.328 61.216 14.032 60.88C14.736 60.544 15.544 60.376 16.456 60.376C17.128 60.376 17.752 60.464 18.328 60.64C18.92 60.8 19.44 61.048 19.888 61.384C20.352 61.72 20.728 62.152 21.016 62.68C21.304 63.192 21.48 63.792 21.544 64.48H20.632ZM26.6713 55.864V63.304H26.7193C26.8793 62.84 27.1033 62.432 27.3913 62.08C27.6953 61.712 28.0393 61.4 28.4233 61.144C28.8233 60.888 29.2553 60.696 29.7193 60.568C30.1833 60.44 30.6553 60.376 31.1353 60.376C31.8553 60.376 32.4633 60.464 32.9593 60.64C33.4713 60.816 33.8873 61.048 34.2073 61.336C34.5273 61.624 34.7753 61.952 34.9513 62.32C35.1433 62.672 35.2793 63.032 35.3593 63.4C35.4393 63.768 35.4873 64.128 35.5033 64.48C35.5193 64.816 35.5273 65.112 35.5273 65.368V73H34.6153V65.2C34.6153 64.896 34.5913 64.512 34.5433 64.048C34.4953 63.584 34.3513 63.144 34.1113 62.728C33.8873 62.296 33.5353 61.928 33.0553 61.624C32.5913 61.32 31.9433 61.168 31.1113 61.168C30.4073 61.168 29.7833 61.296 29.2393 61.552C28.6953 61.808 28.2313 62.168 27.8473 62.632C27.4633 63.08 27.1673 63.624 26.9593 64.264C26.7673 64.888 26.6713 65.576 26.6713 66.328V73H25.7593V55.864H26.6713ZM40.5346 66.952V67.096C40.5346 67.816 40.6306 68.504 40.8226 69.16C41.0146 69.816 41.2946 70.392 41.6626 70.888C42.0466 71.384 42.5186 71.776 43.0786 72.064C43.6546 72.352 44.3186 72.496 45.0706 72.496C46.3026 72.496 47.2786 72.176 47.9986 71.536C48.7186 70.88 49.2146 69.976 49.4866 68.824H50.3986C50.1266 70.264 49.5346 71.368 48.6226 72.136C47.7266 72.904 46.5346 73.288 45.0466 73.288C44.1346 73.288 43.3346 73.128 42.6466 72.808C41.9746 72.472 41.4066 72.024 40.9426 71.464C40.4946 70.888 40.1586 70.216 39.9346 69.448C39.7106 68.664 39.5986 67.824 39.5986 66.928C39.5986 66.064 39.7106 65.24 39.9346 64.456C40.1746 63.656 40.5266 62.96 40.9906 62.368C41.4546 61.76 42.0306 61.28 42.7186 60.928C43.4226 60.56 44.2466 60.376 45.1906 60.376C46.0546 60.376 46.8146 60.536 47.4706 60.856C48.1426 61.176 48.7026 61.616 49.1506 62.176C49.5986 62.72 49.9346 63.36 50.1586 64.096C50.3986 64.816 50.5186 65.592 50.5186 66.424C50.5186 66.504 50.5106 66.6 50.4946 66.712C50.4946 66.808 50.4946 66.888 50.4946 66.952H40.5346ZM49.5826 66.16C49.5506 65.488 49.4386 64.856 49.2466 64.264C49.0546 63.656 48.7666 63.128 48.3826 62.68C48.0146 62.216 47.5586 61.848 47.0146 61.576C46.4866 61.304 45.8786 61.168 45.1906 61.168C44.4546 61.168 43.8066 61.312 43.2466 61.6C42.6866 61.872 42.2146 62.24 41.8306 62.704C41.4466 63.152 41.1506 63.68 40.9426 64.288C40.7346 64.896 40.6066 65.52 40.5586 66.16H49.5826ZM53.2459 61.456V60.664H55.4539V58.12C55.4539 57.688 55.5259 57.32 55.6699 57.016C55.8139 56.696 56.0059 56.44 56.2459 56.248C56.5019 56.056 56.7899 55.912 57.1099 55.816C57.4459 55.72 57.7979 55.672 58.1659 55.672C58.4379 55.672 58.7979 55.712 59.2459 55.792V56.584C58.7979 56.504 58.4379 56.464 58.1659 56.464C57.6539 56.464 57.2219 56.584 56.8699 56.824C56.5339 57.048 56.3659 57.504 56.3659 58.192V60.664H58.9339V61.456H56.3659V73H55.4539V61.456H53.2459ZM71.9107 63.4H71.9827C72.0947 63 72.2947 62.624 72.5827 62.272C72.8867 61.92 73.2467 61.616 73.6627 61.36C74.0947 61.104 74.5667 60.912 75.0787 60.784C75.6067 60.64 76.1507 60.576 76.7107 60.592V61.504C76.2307 61.44 75.6787 61.488 75.0547 61.648C74.4467 61.808 73.8627 62.16 73.3027 62.704C73.0787 62.944 72.8787 63.176 72.7027 63.4C72.5427 63.624 72.4067 63.872 72.2947 64.144C72.1827 64.416 72.0947 64.72 72.0307 65.056C71.9667 65.392 71.9267 65.792 71.9107 66.256V73H70.9987V60.664H71.9107V63.4ZM79.7271 66.952V67.096C79.7271 67.816 79.8231 68.504 80.0151 69.16C80.2071 69.816 80.4871 70.392 80.8551 70.888C81.2391 71.384 81.7111 71.776 82.2711 72.064C82.8471 72.352 83.5111 72.496 84.2631 72.496C85.4951 72.496 86.4711 72.176 87.1911 71.536C87.9111 70.88 88.4071 69.976 88.6791 68.824H89.5911C89.3191 70.264 88.7271 71.368 87.8151 72.136C86.9191 72.904 85.7271 73.288 84.2391 73.288C83.3271 73.288 82.5271 73.128 81.8391 72.808C81.1671 72.472 80.5991 72.024 80.1351 71.464C79.6871 70.888 79.3511 70.216 79.1271 69.448C78.9031 68.664 78.7911 67.824 78.7911 66.928C78.7911 66.064 78.9031 65.24 79.1271 64.456C79.3671 63.656 79.7191 62.96 80.1831 62.368C80.6471 61.76 81.2231 61.28 81.9111 60.928C82.6151 60.56 83.4391 60.376 84.3831 60.376C85.2471 60.376 86.0071 60.536 86.6631 60.856C87.3351 61.176 87.8951 61.616 88.3431 62.176C88.7911 62.72 89.1271 63.36 89.3511 64.096C89.5911 64.816 89.7111 65.592 89.7111 66.424C89.7111 66.504 89.7031 66.6 89.6871 66.712C89.6871 66.808 89.6871 66.888 89.6871 66.952H79.7271ZM88.7751 66.16C88.7431 65.488 88.6311 64.856 88.4391 64.264C88.2471 63.656 87.9591 63.128 87.5751 62.68C87.2071 62.216 86.7511 61.848 86.2071 61.576C85.6791 61.304 85.0711 61.168 84.3831 61.168C83.6471 61.168 82.9991 61.312 82.4391 61.6C81.8791 61.872 81.4071 62.24 81.0231 62.704C80.6391 63.152 80.3431 63.68 80.1351 64.288C79.9271 64.896 79.7991 65.52 79.7511 66.16H88.7751ZM94.2144 68.896C94.2464 69.472 94.3744 69.984 94.5984 70.432C94.8224 70.864 95.1104 71.24 95.4624 71.56C95.8304 71.864 96.2544 72.096 96.7344 72.256C97.2144 72.416 97.7344 72.496 98.2944 72.496C98.6944 72.496 99.1184 72.464 99.5664 72.4C100.03 72.32 100.454 72.184 100.838 71.992C101.238 71.8 101.566 71.536 101.822 71.2C102.078 70.848 102.206 70.408 102.206 69.88C102.206 69.192 101.998 68.672 101.582 68.32C101.166 67.968 100.638 67.696 99.9984 67.504C99.3744 67.312 98.6944 67.16 97.9584 67.048C97.2384 66.92 96.5584 66.736 95.9184 66.496C95.2944 66.256 94.7744 65.92 94.3584 65.488C93.9424 65.04 93.7344 64.392 93.7344 63.544C93.7344 62.936 93.8704 62.432 94.1424 62.032C94.4144 61.616 94.7584 61.288 95.1744 61.048C95.6064 60.808 96.0864 60.64 96.6144 60.544C97.1424 60.432 97.6704 60.376 98.1984 60.376C98.8384 60.376 99.4384 60.448 99.9984 60.592C100.558 60.736 101.038 60.968 101.438 61.288C101.854 61.608 102.174 62.016 102.398 62.512C102.638 63.008 102.758 63.608 102.758 64.312H101.846C101.846 63.752 101.75 63.272 101.558 62.872C101.382 62.472 101.126 62.152 100.79 61.912C100.47 61.656 100.086 61.472 99.6384 61.36C99.1904 61.232 98.7104 61.168 98.1984 61.168C97.7824 61.168 97.3584 61.208 96.9264 61.288C96.5104 61.368 96.1344 61.504 95.7984 61.696C95.4624 61.888 95.1824 62.136 94.9584 62.44C94.7504 62.744 94.6464 63.112 94.6464 63.544C94.6464 64.04 94.7664 64.44 95.0064 64.744C95.2464 65.048 95.5584 65.296 95.9424 65.488C96.3424 65.664 96.7824 65.808 97.2624 65.92C97.7584 66.032 98.2544 66.144 98.7504 66.256C99.3584 66.368 99.9264 66.504 100.454 66.664C100.998 66.808 101.462 67.016 101.846 67.288C102.246 67.544 102.558 67.88 102.782 68.296C103.006 68.712 103.118 69.24 103.118 69.88C103.118 70.552 102.966 71.104 102.662 71.536C102.358 71.968 101.974 72.32 101.51 72.592C101.046 72.848 100.526 73.024 99.9504 73.12C99.3904 73.232 98.8384 73.288 98.2944 73.288C97.5904 73.288 96.9344 73.192 96.3264 73C95.7344 72.824 95.2144 72.552 94.7664 72.184C94.3184 71.8 93.9664 71.336 93.7104 70.792C93.4544 70.248 93.3184 69.616 93.3024 68.896H94.2144ZM111.843 61.456H109.155V70.072C109.155 70.568 109.211 70.96 109.323 71.248C109.435 71.536 109.603 71.76 109.827 71.92C110.067 72.064 110.347 72.152 110.667 72.184C111.003 72.216 111.387 72.224 111.819 72.208V73C111.355 73.032 110.899 73.032 110.451 73C110.019 72.952 109.635 72.832 109.299 72.64C108.963 72.432 108.691 72.128 108.483 71.728C108.291 71.328 108.211 70.776 108.243 70.072V61.456H105.963V60.664H108.243V56.824H109.155V60.664H111.843V61.456ZM123.672 70.552H123.624C123.48 70.92 123.272 71.272 123 71.608C122.728 71.928 122.392 72.216 121.992 72.472C121.608 72.728 121.168 72.928 120.672 73.072C120.176 73.216 119.632 73.288 119.04 73.288C117.728 73.288 116.712 73.008 115.992 72.448C115.272 71.872 114.912 70.992 114.912 69.808C114.912 69.088 115.056 68.504 115.344 68.056C115.632 67.592 115.992 67.232 116.424 66.976C116.872 66.704 117.36 66.512 117.888 66.4C118.432 66.288 118.952 66.208 119.448 66.16L120.864 66.04C121.52 65.992 122.032 65.92 122.4 65.824C122.784 65.712 123.072 65.568 123.264 65.392C123.456 65.2 123.576 64.96 123.624 64.672C123.672 64.384 123.696 64.024 123.696 63.592C123.696 63.256 123.632 62.944 123.504 62.656C123.376 62.368 123.176 62.112 122.904 61.888C122.632 61.664 122.28 61.488 121.848 61.36C121.416 61.232 120.888 61.168 120.264 61.168C119.16 61.168 118.264 61.44 117.576 61.984C116.904 62.528 116.536 63.352 116.472 64.456H115.56C115.624 63.096 116.056 62.08 116.856 61.408C117.672 60.72 118.824 60.376 120.312 60.376C121.8 60.376 122.88 60.672 123.552 61.264C124.24 61.84 124.584 62.6 124.584 63.544V70.72C124.584 70.896 124.584 71.072 124.584 71.248C124.6 71.424 124.632 71.584 124.68 71.728C124.728 71.872 124.808 71.992 124.92 72.088C125.032 72.168 125.192 72.208 125.4 72.208C125.56 72.208 125.784 72.184 126.072 72.136V72.904C125.832 72.968 125.584 73 125.328 73C124.96 73 124.664 72.952 124.44 72.856C124.232 72.76 124.072 72.632 123.96 72.472C123.848 72.312 123.768 72.128 123.72 71.92C123.688 71.696 123.672 71.456 123.672 71.2V70.552ZM123.672 65.992C123.448 66.264 123.104 66.448 122.64 66.544C122.192 66.64 121.688 66.712 121.128 66.76L119.592 66.904C119.144 66.952 118.696 67.024 118.248 67.12C117.8 67.2 117.392 67.344 117.024 67.552C116.672 67.76 116.384 68.048 116.16 68.416C115.936 68.768 115.824 69.232 115.824 69.808C115.824 70.72 116.112 71.4 116.688 71.848C117.264 72.28 118.056 72.496 119.064 72.496C120.104 72.496 120.928 72.312 121.536 71.944C122.144 71.56 122.608 71.128 122.928 70.648C123.248 70.152 123.448 69.68 123.528 69.232C123.624 68.768 123.672 68.456 123.672 68.296V65.992ZM139.226 73H138.314V70.36H138.266C138.106 70.824 137.874 71.24 137.57 71.608C137.282 71.96 136.938 72.264 136.538 72.52C136.154 72.776 135.73 72.968 135.266 73.096C134.802 73.224 134.33 73.288 133.85 73.288C133.13 73.288 132.514 73.2 132.002 73.024C131.506 72.848 131.098 72.616 130.778 72.328C130.458 72.04 130.202 71.72 130.01 71.368C129.834 71 129.706 70.632 129.626 70.264C129.546 69.896 129.498 69.544 129.482 69.208C129.466 68.856 129.458 68.552 129.458 68.296V60.664H130.37V68.464C130.37 68.784 130.394 69.176 130.442 69.64C130.49 70.088 130.626 70.528 130.85 70.96C131.09 71.376 131.442 71.736 131.906 72.04C132.37 72.344 133.026 72.496 133.874 72.496C134.562 72.496 135.178 72.368 135.722 72.112C136.282 71.856 136.754 71.504 137.138 71.056C137.522 70.592 137.81 70.048 138.002 69.424C138.21 68.784 138.314 68.088 138.314 67.336V60.664H139.226V73ZM144.785 63.4H144.857C144.969 63 145.169 62.624 145.457 62.272C145.761 61.92 146.121 61.616 146.537 61.36C146.969 61.104 147.441 60.912 147.953 60.784C148.481 60.64 149.025 60.576 149.585 60.592V61.504C149.105 61.44 148.553 61.488 147.929 61.648C147.321 61.808 146.737 62.16 146.177 62.704C145.953 62.944 145.753 63.176 145.577 63.4C145.417 63.624 145.281 63.872 145.169 64.144C145.057 64.416 144.969 64.72 144.905 65.056C144.841 65.392 144.801 65.792 144.785 66.256V73H143.873V60.664H144.785V63.4ZM160.238 70.552H160.19C160.046 70.92 159.838 71.272 159.566 71.608C159.294 71.928 158.958 72.216 158.558 72.472C158.174 72.728 157.734 72.928 157.238 73.072C156.742 73.216 156.198 73.288 155.606 73.288C154.294 73.288 153.278 73.008 152.558 72.448C151.838 71.872 151.478 70.992 151.478 69.808C151.478 69.088 151.622 68.504 151.91 68.056C152.198 67.592 152.558 67.232 152.99 66.976C153.438 66.704 153.926 66.512 154.454 66.4C154.998 66.288 155.518 66.208 156.014 66.16L157.43 66.04C158.086 65.992 158.598 65.92 158.966 65.824C159.35 65.712 159.638 65.568 159.83 65.392C160.022 65.2 160.142 64.96 160.19 64.672C160.238 64.384 160.262 64.024 160.262 63.592C160.262 63.256 160.198 62.944 160.07 62.656C159.942 62.368 159.742 62.112 159.47 61.888C159.198 61.664 158.846 61.488 158.414 61.36C157.982 61.232 157.454 61.168 156.83 61.168C155.726 61.168 154.83 61.44 154.142 61.984C153.47 62.528 153.102 63.352 153.038 64.456H152.126C152.19 63.096 152.622 62.08 153.422 61.408C154.238 60.72 155.39 60.376 156.878 60.376C158.366 60.376 159.446 60.672 160.118 61.264C160.806 61.84 161.15 62.6 161.15 63.544V70.72C161.15 70.896 161.15 71.072 161.15 71.248C161.166 71.424 161.198 71.584 161.246 71.728C161.294 71.872 161.374 71.992 161.486 72.088C161.598 72.168 161.758 72.208 161.966 72.208C162.126 72.208 162.35 72.184 162.638 72.136V72.904C162.398 72.968 162.15 73 161.894 73C161.526 73 161.23 72.952 161.006 72.856C160.798 72.76 160.638 72.632 160.526 72.472C160.414 72.312 160.334 72.128 160.286 71.92C160.254 71.696 160.238 71.456 160.238 71.2V70.552ZM160.238 65.992C160.014 66.264 159.67 66.448 159.206 66.544C158.758 66.64 158.254 66.712 157.694 66.76L156.158 66.904C155.71 66.952 155.262 67.024 154.814 67.12C154.366 67.2 153.958 67.344 153.59 67.552C153.238 67.76 152.95 68.048 152.726 68.416C152.502 68.768 152.39 69.232 152.39 69.808C152.39 70.72 152.678 71.4 153.254 71.848C153.83 72.28 154.622 72.496 155.63 72.496C156.67 72.496 157.494 72.312 158.102 71.944C158.71 71.56 159.174 71.128 159.494 70.648C159.814 70.152 160.014 69.68 160.094 69.232C160.19 68.768 160.238 68.456 160.238 68.296V65.992ZM166.024 60.664H166.936V63.304H166.984C167.144 62.84 167.368 62.432 167.656 62.08C167.96 61.712 168.304 61.4 168.688 61.144C169.088 60.888 169.52 60.696 169.984 60.568C170.448 60.44 170.92 60.376 171.4 60.376C172.12 60.376 172.728 60.464 173.224 60.64C173.736 60.816 174.152 61.048 174.472 61.336C174.792 61.624 175.04 61.952 175.216 62.32C175.408 62.672 175.544 63.032 175.624 63.4C175.704 63.768 175.752 64.128 175.768 64.48C175.784 64.816 175.792 65.112 175.792 65.368V73H174.88V65.2C174.88 64.896 174.856 64.512 174.808 64.048C174.76 63.584 174.616 63.144 174.376 62.728C174.152 62.296 173.8 61.928 173.32 61.624C172.856 61.32 172.208 61.168 171.376 61.168C170.672 61.168 170.048 61.296 169.504 61.552C168.96 61.808 168.496 62.168 168.112 62.632C167.728 63.08 167.432 63.624 167.224 64.264C167.032 64.888 166.936 65.576 166.936 66.328V73H166.024V60.664ZM184.976 61.456H182.288V70.072C182.288 70.568 182.344 70.96 182.456 71.248C182.568 71.536 182.736 71.76 182.96 71.92C183.2 72.064 183.48 72.152 183.8 72.184C184.136 72.216 184.52 72.224 184.952 72.208V73C184.488 73.032 184.032 73.032 183.584 73C183.152 72.952 182.768 72.832 182.432 72.64C182.096 72.432 181.824 72.128 181.616 71.728C181.424 71.328 181.344 70.776 181.376 70.072V61.456H179.096V60.664H181.376V56.824H182.288V60.664H184.976V61.456ZM189.053 68.896C189.085 69.472 189.213 69.984 189.437 70.432C189.661 70.864 189.949 71.24 190.301 71.56C190.669 71.864 191.093 72.096 191.573 72.256C192.053 72.416 192.573 72.496 193.133 72.496C193.533 72.496 193.957 72.464 194.405 72.4C194.869 72.32 195.293 72.184 195.677 71.992C196.077 71.8 196.405 71.536 196.661 71.2C196.917 70.848 197.045 70.408 197.045 69.88C197.045 69.192 196.837 68.672 196.421 68.32C196.005 67.968 195.477 67.696 194.837 67.504C194.213 67.312 193.533 67.16 192.797 67.048C192.077 66.92 191.397 66.736 190.757 66.496C190.133 66.256 189.613 65.92 189.197 65.488C188.781 65.04 188.573 64.392 188.573 63.544C188.573 62.936 188.709 62.432 188.981 62.032C189.253 61.616 189.597 61.288 190.013 61.048C190.445 60.808 190.925 60.64 191.453 60.544C191.981 60.432 192.509 60.376 193.037 60.376C193.677 60.376 194.277 60.448 194.837 60.592C195.397 60.736 195.877 60.968 196.277 61.288C196.693 61.608 197.013 62.016 197.237 62.512C197.477 63.008 197.597 63.608 197.597 64.312H196.685C196.685 63.752 196.589 63.272 196.397 62.872C196.221 62.472 195.965 62.152 195.629 61.912C195.309 61.656 194.925 61.472 194.477 61.36C194.029 61.232 193.549 61.168 193.037 61.168C192.621 61.168 192.197 61.208 191.765 61.288C191.349 61.368 190.973 61.504 190.637 61.696C190.301 61.888 190.021 62.136 189.797 62.44C189.589 62.744 189.485 63.112 189.485 63.544C189.485 64.04 189.605 64.44 189.845 64.744C190.085 65.048 190.397 65.296 190.781 65.488C191.181 65.664 191.621 65.808 192.101 65.92C192.597 66.032 193.093 66.144 193.589 66.256C194.197 66.368 194.765 66.504 195.293 66.664C195.837 66.808 196.301 67.016 196.685 67.288C197.085 67.544 197.397 67.88 197.621 68.296C197.845 68.712 197.957 69.24 197.957 69.88C197.957 70.552 197.805 71.104 197.501 71.536C197.197 71.968 196.813 72.32 196.349 72.592C195.885 72.848 195.365 73.024 194.789 73.12C194.229 73.232 193.677 73.288 193.133 73.288C192.429 73.288 191.773 73.192 191.165 73C190.573 72.824 190.053 72.552 189.605 72.184C189.157 71.8 188.805 71.336 188.549 70.792C188.293 70.248 188.157 69.616 188.141 68.896H189.053ZM211.011 58.336V55.864H211.923V58.336H211.011ZM211.011 73V60.664H211.923V73H211.011ZM216.796 60.664H217.708V63.304H217.756C217.916 62.84 218.14 62.432 218.428 62.08C218.732 61.712 219.076 61.4 219.46 61.144C219.86 60.888 220.292 60.696 220.756 60.568C221.22 60.44 221.692 60.376 222.172 60.376C222.892 60.376 223.5 60.464 223.996 60.64C224.508 60.816 224.924 61.048 225.244 61.336C225.564 61.624 225.812 61.952 225.988 62.32C226.18 62.672 226.316 63.032 226.396 63.4C226.476 63.768 226.524 64.128 226.54 64.48C226.556 64.816 226.564 65.112 226.564 65.368V73H225.652V65.2C225.652 64.896 225.628 64.512 225.58 64.048C225.532 63.584 225.388 63.144 225.148 62.728C224.924 62.296 224.572 61.928 224.092 61.624C223.628 61.32 222.98 61.168 222.148 61.168C221.444 61.168 220.82 61.296 220.276 61.552C219.732 61.808 219.268 62.168 218.884 62.632C218.5 63.08 218.204 63.624 217.996 64.264C217.804 64.888 217.708 65.576 217.708 66.328V73H216.796V60.664ZM238.181 56.776V55.864H251.309V56.776H245.261V73H244.205V56.776H238.181ZM252.34 66.952V67.096C252.34 67.816 252.436 68.504 252.628 69.16C252.82 69.816 253.1 70.392 253.468 70.888C253.852 71.384 254.324 71.776 254.884 72.064C255.46 72.352 256.124 72.496 256.876 72.496C258.108 72.496 259.084 72.176 259.804 71.536C260.524 70.88 261.02 69.976 261.292 68.824H262.204C261.932 70.264 261.34 71.368 260.428 72.136C259.532 72.904 258.34 73.288 256.852 73.288C255.94 73.288 255.14 73.128 254.452 72.808C253.78 72.472 253.212 72.024 252.748 71.464C252.3 70.888 251.964 70.216 251.74 69.448C251.516 68.664 251.404 67.824 251.404 66.928C251.404 66.064 251.516 65.24 251.74 64.456C251.98 63.656 252.332 62.96 252.796 62.368C253.26 61.76 253.836 61.28 254.524 60.928C255.228 60.56 256.052 60.376 256.996 60.376C257.86 60.376 258.62 60.536 259.276 60.856C259.948 61.176 260.508 61.616 260.956 62.176C261.404 62.72 261.74 63.36 261.964 64.096C262.204 64.816 262.324 65.592 262.324 66.424C262.324 66.504 262.316 66.6 262.3 66.712C262.3 66.808 262.3 66.888 262.3 66.952H252.34ZM261.388 66.16C261.356 65.488 261.244 64.856 261.052 64.264C260.86 63.656 260.572 63.128 260.188 62.68C259.82 62.216 259.364 61.848 258.82 61.576C258.292 61.304 257.684 61.168 256.996 61.168C256.26 61.168 255.612 61.312 255.052 61.6C254.492 61.872 254.02 62.24 253.636 62.704C253.252 63.152 252.956 63.68 252.748 64.288C252.54 64.896 252.412 65.52 252.364 66.16H261.388ZM267.523 55.864V73H266.611V55.864H267.523ZM286.302 55.864H287.454L294.222 73H293.094L290.934 67.504H282.726L280.542 73H279.414L286.302 55.864ZM290.598 66.592L286.926 56.896H286.878L283.062 66.592H290.598ZM301.22 73H300.092L295.124 60.664H296.18L300.644 71.944H300.692L304.868 60.664H305.876L301.22 73ZM309.366 58.336V55.864H310.278V58.336H309.366ZM309.366 73V60.664H310.278V73H309.366ZM319.855 73H318.727L313.759 60.664H314.815L319.279 71.944H319.327L323.503 60.664H324.511L319.855 73Z" fill="black"/>
<path d="M29.271 103C25.2606 103 22 106.256 22 110.261C22 114.266 25.2606 117.523 29.271 117.523C31.1852 117.523 32.9194 116.774 34.2129 115.585L41.5613 122.923C41.6129 122.974 41.6903 123 41.7419 123C41.7935 123 41.871 122.974 41.9226 122.923C42.0258 122.819 42.0258 122.664 41.9226 122.561L34.5748 115.195C35.791 113.903 36.5155 112.172 36.5155 110.26C36.5419 106.255 33.2813 103 29.271 103ZM34.109 114.964C34.0832 114.964 34.0574 114.99 34.0316 115.015C34.0052 115.041 34.0052 115.067 33.98 115.093C32.7225 116.324 31.0309 117.011 29.271 117.005C25.5445 117.005 22.5174 113.982 22.5174 110.261C22.5174 106.54 25.5445 103.516 29.271 103.516C32.9961 103.516 36.0245 106.539 36.0245 110.261C36.0289 112.019 35.3408 113.708 34.109 114.963V114.964Z" fill="black"/>
<path fill-rule="evenodd" clip-rule="evenodd" d="M28.7174 104.936C28.5574 104.936 28.4516 105.041 28.4516 105.201C28.4516 105.361 28.5574 105.467 28.7174 105.467C31.8232 105.467 34.3722 107.989 34.3722 111.121C34.3722 111.281 34.4781 111.387 34.6374 111.387C34.7974 111.387 34.9032 111.281 34.9032 111.121C34.9019 107.723 32.1148 104.936 28.7174 104.936Z" fill="black"/>
<path d="M66.348 111.38C66.332 111.012 66.252 110.692 66.108 110.42C65.972 110.148 65.784 109.92 65.544 109.736C65.304 109.552 65.016 109.416 64.68 109.328C64.352 109.232 63.992 109.184 63.6 109.184C63.36 109.184 63.1 109.212 62.82 109.268C62.548 109.324 62.292 109.424 62.052 109.568C61.82 109.704 61.628 109.892 61.476 110.132C61.324 110.364 61.248 110.656 61.248 111.008C61.248 111.352 61.332 111.632 61.5 111.848C61.668 112.064 61.888 112.24 62.16 112.376C62.432 112.504 62.744 112.608 63.096 112.688C63.448 112.768 63.804 112.844 64.164 112.916C64.532 112.988 64.888 113.076 65.232 113.18C65.584 113.276 65.896 113.412 66.168 113.588C66.448 113.756 66.672 113.98 66.84 114.26C67.008 114.532 67.092 114.876 67.092 115.292C67.092 115.74 66.996 116.116 66.804 116.42C66.612 116.724 66.368 116.972 66.072 117.164C65.784 117.356 65.46 117.492 65.1 117.572C64.748 117.66 64.408 117.704 64.08 117.704C63.576 117.704 63.104 117.648 62.664 117.536C62.224 117.432 61.84 117.26 61.512 117.02C61.184 116.772 60.924 116.456 60.732 116.072C60.548 115.688 60.46 115.22 60.468 114.668H60.996C60.972 115.14 61.04 115.54 61.2 115.868C61.36 116.188 61.58 116.452 61.86 116.66C62.148 116.868 62.484 117.02 62.868 117.116C63.252 117.204 63.656 117.248 64.08 117.248C64.336 117.248 64.608 117.216 64.896 117.152C65.192 117.088 65.46 116.98 65.7 116.828C65.948 116.676 66.152 116.476 66.312 116.228C66.48 115.98 66.564 115.668 66.564 115.292C66.564 114.932 66.48 114.64 66.312 114.416C66.144 114.184 65.92 114 65.64 113.864C65.368 113.72 65.056 113.608 64.704 113.528C64.36 113.44 64.004 113.36 63.636 113.288C63.276 113.216 62.92 113.132 62.568 113.036C62.216 112.94 61.904 112.812 61.632 112.652C61.36 112.484 61.14 112.272 60.972 112.016C60.804 111.752 60.72 111.416 60.72 111.008C60.72 110.6 60.804 110.252 60.972 109.964C61.148 109.668 61.372 109.432 61.644 109.256C61.924 109.072 62.236 108.94 62.58 108.86C62.924 108.772 63.264 108.728 63.6 108.728C64.048 108.728 64.464 108.78 64.848 108.884C65.24 108.98 65.58 109.136 65.868 109.352C66.164 109.56 66.4 109.832 66.576 110.168C66.752 110.504 66.852 110.908 66.876 111.38H66.348ZM69.7006 114.476V114.548C69.7006 114.908 69.7486 115.252 69.8446 115.58C69.9406 115.908 70.0806 116.196 70.2646 116.444C70.4566 116.692 70.6926 116.888 70.9726 117.032C71.2606 117.176 71.5926 117.248 71.9686 117.248C72.5846 117.248 73.0726 117.088 73.4326 116.768C73.7926 116.44 74.0406 115.988 74.1766 115.412H74.6326C74.4966 116.132 74.2006 116.684 73.7446 117.068C73.2966 117.452 72.7006 117.644 71.9566 117.644C71.5006 117.644 71.1006 117.564 70.7566 117.404C70.4206 117.236 70.1366 117.012 69.9046 116.732C69.6806 116.444 69.5126 116.108 69.4006 115.724C69.2886 115.332 69.2326 114.912 69.2326 114.464C69.2326 114.032 69.2886 113.62 69.4006 113.228C69.5206 112.828 69.6966 112.48 69.9286 112.184C70.1606 111.88 70.4486 111.64 70.7926 111.464C71.1446 111.28 71.5566 111.188 72.0286 111.188C72.4606 111.188 72.8406 111.268 73.1686 111.428C73.5046 111.588 73.7846 111.808 74.0086 112.088C74.2326 112.36 74.4006 112.68 74.5126 113.048C74.6326 113.408 74.6926 113.796 74.6926 114.212C74.6926 114.252 74.6886 114.3 74.6806 114.356C74.6806 114.404 74.6806 114.444 74.6806 114.476H69.7006ZM74.2246 114.08C74.2086 113.744 74.1526 113.428 74.0566 113.132C73.9606 112.828 73.8166 112.564 73.6246 112.34C73.4406 112.108 73.2126 111.924 72.9406 111.788C72.6766 111.652 72.3726 111.584 72.0286 111.584C71.6606 111.584 71.3366 111.656 71.0566 111.8C70.7766 111.936 70.5406 112.12 70.3486 112.352C70.1566 112.576 70.0086 112.84 69.9046 113.144C69.8006 113.448 69.7366 113.76 69.7126 114.08H74.2246ZM81.1253 116.276H81.1013C81.0293 116.46 80.9253 116.636 80.7893 116.804C80.6533 116.964 80.4853 117.108 80.2853 117.236C80.0933 117.364 79.8733 117.464 79.6253 117.536C79.3773 117.608 79.1053 117.644 78.8093 117.644C78.1533 117.644 77.6453 117.504 77.2853 117.224C76.9252 116.936 76.7452 116.496 76.7452 115.904C76.7452 115.544 76.8172 115.252 76.9612 115.028C77.1052 114.796 77.2852 114.616 77.5012 114.488C77.7252 114.352 77.9692 114.256 78.2332 114.2C78.5053 114.144 78.7653 114.104 79.0133 114.08L79.7212 114.02C80.0493 113.996 80.3053 113.96 80.4893 113.912C80.6813 113.856 80.8253 113.784 80.9213 113.696C81.0173 113.6 81.0773 113.48 81.1013 113.336C81.1253 113.192 81.1373 113.012 81.1373 112.796C81.1373 112.628 81.1053 112.472 81.0413 112.328C80.9773 112.184 80.8773 112.056 80.7413 111.944C80.6053 111.832 80.4293 111.744 80.2133 111.68C79.9972 111.616 79.7333 111.584 79.4213 111.584C78.8693 111.584 78.4212 111.72 78.0773 111.992C77.7412 112.264 77.5572 112.676 77.5252 113.228H77.0692C77.1012 112.548 77.3172 112.04 77.7172 111.704C78.1252 111.36 78.7012 111.188 79.4452 111.188C80.1893 111.188 80.7293 111.336 81.0653 111.632C81.4093 111.92 81.5813 112.3 81.5813 112.772V116.36C81.5813 116.448 81.5813 116.536 81.5813 116.624C81.5893 116.712 81.6053 116.792 81.6293 116.864C81.6533 116.936 81.6933 116.996 81.7493 117.044C81.8053 117.084 81.8853 117.104 81.9893 117.104C82.0693 117.104 82.1813 117.092 82.3253 117.068V117.452C82.2053 117.484 82.0813 117.5 81.9533 117.5C81.7693 117.5 81.6213 117.476 81.5093 117.428C81.4053 117.38 81.3253 117.316 81.2693 117.236C81.2133 117.156 81.1733 117.064 81.1493 116.96C81.1333 116.848 81.1253 116.728 81.1253 116.6V116.276ZM81.1253 113.996C81.0133 114.132 80.8413 114.224 80.6092 114.272C80.3852 114.32 80.1332 114.356 79.8533 114.38L79.0853 114.452C78.8613 114.476 78.6373 114.512 78.4132 114.56C78.1892 114.6 77.9852 114.672 77.8012 114.776C77.6252 114.88 77.4812 115.024 77.3692 115.208C77.2572 115.384 77.2012 115.616 77.2012 115.904C77.2012 116.36 77.3452 116.7 77.6332 116.924C77.9212 117.14 78.3173 117.248 78.8213 117.248C79.3413 117.248 79.7533 117.156 80.0573 116.972C80.3613 116.78 80.5933 116.564 80.7533 116.324C80.9133 116.076 81.0133 115.84 81.0533 115.616C81.1013 115.384 81.1253 115.228 81.1253 115.148V113.996ZM84.7792 112.7H84.8152C84.8712 112.5 84.9712 112.312 85.1152 112.136C85.2672 111.96 85.4472 111.808 85.6552 111.68C85.8712 111.552 86.1072 111.456 86.3632 111.392C86.6272 111.32 86.8992 111.288 87.1792 111.296V111.752C86.9392 111.72 86.6632 111.744 86.3512 111.824C86.0472 111.904 85.7552 112.08 85.4752 112.352C85.3632 112.472 85.2632 112.588 85.1752 112.7C85.0952 112.812 85.0272 112.936 84.9712 113.072C84.9152 113.208 84.8712 113.36 84.8392 113.528C84.8072 113.696 84.7872 113.896 84.7792 114.128V117.5H84.3232V111.332H84.7792V112.7ZM93.4565 113.24C93.4325 112.968 93.3605 112.728 93.2405 112.52C93.1285 112.312 92.9805 112.14 92.7965 112.004C92.6125 111.868 92.3965 111.764 92.1485 111.692C91.9085 111.62 91.6485 111.584 91.3685 111.584C90.9845 111.584 90.6445 111.664 90.3485 111.824C90.0525 111.976 89.8045 112.184 89.6045 112.448C89.4045 112.704 89.2525 113 89.1485 113.336C89.0445 113.664 88.9925 114.004 88.9925 114.356C88.9925 114.772 89.0405 115.156 89.1365 115.508C89.2325 115.86 89.3805 116.168 89.5805 116.432C89.7805 116.688 90.0285 116.888 90.3245 117.032C90.6205 117.176 90.9685 117.248 91.3685 117.248C91.6565 117.248 91.9205 117.2 92.1605 117.104C92.4085 117.008 92.6245 116.876 92.8085 116.708C93.0005 116.54 93.1565 116.34 93.2765 116.108C93.3965 115.868 93.4765 115.608 93.5165 115.328H93.9725C93.9245 115.696 93.8245 116.024 93.6725 116.312C93.5205 116.6 93.3285 116.844 93.0965 117.044C92.8645 117.236 92.6005 117.384 92.3045 117.488C92.0085 117.592 91.6965 117.644 91.3685 117.644C90.8645 117.644 90.4325 117.556 90.0725 117.38C89.7205 117.196 89.4285 116.952 89.1965 116.648C88.9725 116.344 88.8045 115.996 88.6925 115.604C88.5885 115.204 88.5365 114.788 88.5365 114.356C88.5365 113.924 88.5965 113.516 88.7165 113.132C88.8445 112.748 89.0285 112.412 89.2685 112.124C89.5085 111.836 89.8045 111.608 90.1565 111.44C90.5085 111.272 90.9125 111.188 91.3685 111.188C91.7045 111.188 92.0165 111.232 92.3045 111.32C92.6005 111.4 92.8605 111.524 93.0845 111.692C93.3165 111.86 93.5045 112.076 93.6485 112.34C93.7925 112.596 93.8805 112.896 93.9125 113.24H93.4565ZM96.7811 108.932V112.652H96.8051C96.8851 112.42 96.9971 112.216 97.1411 112.04C97.2931 111.856 97.4651 111.7 97.6571 111.572C97.8571 111.444 98.0731 111.348 98.3051 111.284C98.5371 111.22 98.7731 111.188 99.0131 111.188C99.3731 111.188 99.6771 111.232 99.9251 111.32C100.181 111.408 100.389 111.524 100.549 111.668C100.709 111.812 100.833 111.976 100.921 112.16C101.017 112.336 101.085 112.516 101.125 112.7C101.165 112.884 101.189 113.064 101.197 113.24C101.205 113.408 101.209 113.556 101.209 113.684V117.5H100.753V113.6C100.753 113.448 100.741 113.256 100.717 113.024C100.693 112.792 100.621 112.572 100.501 112.364C100.389 112.148 100.213 111.964 99.9731 111.812C99.7411 111.66 99.4171 111.584 99.0011 111.584C98.6491 111.584 98.3371 111.648 98.0651 111.776C97.7931 111.904 97.5611 112.084 97.3691 112.316C97.1771 112.54 97.0291 112.812 96.9251 113.132C96.8291 113.444 96.7811 113.788 96.7811 114.164V117.5H96.3251V108.932H96.7811ZM107.796 111.728V111.332H108.9V110.06C108.9 109.844 108.936 109.66 109.008 109.508C109.08 109.348 109.176 109.22 109.296 109.124C109.424 109.028 109.568 108.956 109.728 108.908C109.896 108.86 110.072 108.836 110.256 108.836C110.392 108.836 110.572 108.856 110.796 108.896V109.292C110.572 109.252 110.392 109.232 110.256 109.232C110 109.232 109.784 109.292 109.608 109.412C109.44 109.524 109.356 109.752 109.356 110.096V111.332H110.64V111.728H109.356V117.5H108.9V111.728H107.796ZM112.364 114.416C112.364 113.976 112.424 113.564 112.544 113.18C112.672 112.788 112.856 112.444 113.096 112.148C113.336 111.852 113.632 111.62 113.984 111.452C114.336 111.276 114.74 111.188 115.196 111.188C115.652 111.188 116.056 111.276 116.408 111.452C116.76 111.62 117.056 111.852 117.296 112.148C117.536 112.444 117.716 112.788 117.836 113.18C117.964 113.564 118.028 113.976 118.028 114.416C118.028 114.856 117.964 115.272 117.836 115.664C117.716 116.056 117.536 116.4 117.296 116.696C117.056 116.984 116.76 117.216 116.408 117.392C116.056 117.56 115.652 117.644 115.196 117.644C114.74 117.644 114.336 117.56 113.984 117.392C113.632 117.216 113.336 116.984 113.096 116.696C112.856 116.4 112.672 116.056 112.544 115.664C112.424 115.272 112.364 114.856 112.364 114.416ZM112.82 114.416C112.82 114.784 112.872 115.14 112.976 115.484C113.08 115.82 113.232 116.12 113.432 116.384C113.632 116.648 113.88 116.86 114.176 117.02C114.472 117.172 114.812 117.248 115.196 117.248C115.58 117.248 115.92 117.172 116.216 117.02C116.512 116.86 116.76 116.648 116.96 116.384C117.16 116.12 117.312 115.82 117.416 115.484C117.52 115.14 117.572 114.784 117.572 114.416C117.572 114.048 117.52 113.696 117.416 113.36C117.312 113.016 117.16 112.712 116.96 112.448C116.76 112.184 116.512 111.976 116.216 111.824C115.92 111.664 115.58 111.584 115.196 111.584C114.812 111.584 114.472 111.664 114.176 111.824C113.88 111.976 113.632 112.184 113.432 112.448C113.232 112.712 113.08 113.016 112.976 113.36C112.872 113.696 112.82 114.048 112.82 114.416ZM120.843 112.7H120.879C120.935 112.5 121.035 112.312 121.179 112.136C121.331 111.96 121.511 111.808 121.719 111.68C121.935 111.552 122.171 111.456 122.427 111.392C122.691 111.32 122.963 111.288 123.243 111.296V111.752C123.003 111.72 122.727 111.744 122.415 111.824C122.111 111.904 121.819 112.08 121.539 112.352C121.427 112.472 121.327 112.588 121.239 112.7C121.159 112.812 121.091 112.936 121.035 113.072C120.979 113.208 120.935 113.36 120.903 113.528C120.871 113.696 120.851 113.896 120.843 114.128V117.5H120.387V111.332H120.843V112.7ZM130.103 112.7H130.139C130.195 112.5 130.295 112.312 130.439 112.136C130.591 111.96 130.771 111.808 130.979 111.68C131.195 111.552 131.431 111.456 131.687 111.392C131.951 111.32 132.223 111.288 132.503 111.296V111.752C132.263 111.72 131.987 111.744 131.675 111.824C131.371 111.904 131.079 112.08 130.799 112.352C130.687 112.472 130.587 112.588 130.499 112.7C130.419 112.812 130.351 112.936 130.295 113.072C130.239 113.208 130.195 113.36 130.163 113.528C130.131 113.696 130.111 113.896 130.103 114.128V117.5H129.647V111.332H130.103V112.7ZM134.316 114.476V114.548C134.316 114.908 134.364 115.252 134.46 115.58C134.556 115.908 134.696 116.196 134.88 116.444C135.072 116.692 135.308 116.888 135.588 117.032C135.876 117.176 136.208 117.248 136.584 117.248C137.2 117.248 137.688 117.088 138.048 116.768C138.408 116.44 138.656 115.988 138.792 115.412H139.248C139.112 116.132 138.816 116.684 138.36 117.068C137.912 117.452 137.316 117.644 136.572 117.644C136.116 117.644 135.716 117.564 135.372 117.404C135.036 117.236 134.752 117.012 134.52 116.732C134.296 116.444 134.128 116.108 134.016 115.724C133.904 115.332 133.848 114.912 133.848 114.464C133.848 114.032 133.904 113.62 134.016 113.228C134.136 112.828 134.312 112.48 134.544 112.184C134.776 111.88 135.064 111.64 135.408 111.464C135.76 111.28 136.172 111.188 136.644 111.188C137.076 111.188 137.456 111.268 137.784 111.428C138.12 111.588 138.4 111.808 138.624 112.088C138.848 112.36 139.016 112.68 139.128 113.048C139.248 113.408 139.308 113.796 139.308 114.212C139.308 114.252 139.304 114.3 139.296 114.356C139.296 114.404 139.296 114.444 139.296 114.476H134.316ZM138.84 114.08C138.824 113.744 138.768 113.428 138.672 113.132C138.576 112.828 138.432 112.564 138.24 112.34C138.056 112.108 137.828 111.924 137.556 111.788C137.292 111.652 136.988 111.584 136.644 111.584C136.276 111.584 135.952 111.656 135.672 111.8C135.392 111.936 135.156 112.12 134.964 112.352C134.772 112.576 134.624 112.84 134.52 113.144C134.416 113.448 134.352 113.76 134.328 114.08H138.84ZM141.865 115.448C141.881 115.736 141.945 115.992 142.057 116.216C142.169 116.432 142.313 116.62 142.489 116.78C142.673 116.932 142.885 117.048 143.125 117.128C143.365 117.208 143.625 117.248 143.905 117.248C144.105 117.248 144.317 117.232 144.541 117.2C144.773 117.16 144.985 117.092 145.177 116.996C145.377 116.9 145.541 116.768 145.669 116.6C145.797 116.424 145.861 116.204 145.861 115.94C145.861 115.596 145.757 115.336 145.549 115.16C145.341 114.984 145.077 114.848 144.757 114.752C144.445 114.656 144.105 114.58 143.737 114.524C143.377 114.46 143.037 114.368 142.717 114.248C142.405 114.128 142.145 113.96 141.937 113.744C141.729 113.52 141.625 113.196 141.625 112.772C141.625 112.468 141.693 112.216 141.829 112.016C141.965 111.808 142.137 111.644 142.345 111.524C142.561 111.404 142.801 111.32 143.065 111.272C143.329 111.216 143.593 111.188 143.857 111.188C144.177 111.188 144.477 111.224 144.757 111.296C145.037 111.368 145.277 111.484 145.477 111.644C145.685 111.804 145.845 112.008 145.957 112.256C146.077 112.504 146.137 112.804 146.137 113.156H145.681C145.681 112.876 145.633 112.636 145.537 112.436C145.449 112.236 145.321 112.076 145.153 111.956C144.993 111.828 144.801 111.736 144.577 111.68C144.353 111.616 144.113 111.584 143.857 111.584C143.649 111.584 143.437 111.604 143.221 111.644C143.013 111.684 142.825 111.752 142.657 111.848C142.489 111.944 142.349 112.068 142.237 112.22C142.133 112.372 142.081 112.556 142.081 112.772C142.081 113.02 142.141 113.22 142.261 113.372C142.381 113.524 142.537 113.648 142.729 113.744C142.929 113.832 143.149 113.904 143.389 113.96C143.637 114.016 143.885 114.072 144.133 114.128C144.437 114.184 144.721 114.252 144.985 114.332C145.257 114.404 145.489 114.508 145.681 114.644C145.881 114.772 146.037 114.94 146.149 115.148C146.261 115.356 146.317 115.62 146.317 115.94C146.317 116.276 146.241 116.552 146.089 116.768C145.937 116.984 145.745 117.16 145.513 117.296C145.281 117.424 145.021 117.512 144.733 117.56C144.453 117.616 144.177 117.644 143.905 117.644C143.553 117.644 143.225 117.596 142.921 117.5C142.625 117.412 142.365 117.276 142.141 117.092C141.917 116.9 141.741 116.668 141.613 116.396C141.485 116.124 141.417 115.808 141.409 115.448H141.865ZM150.984 111.728H149.64V116.036C149.64 116.284 149.668 116.48 149.724 116.624C149.78 116.768 149.864 116.88 149.976 116.96C150.096 117.032 150.236 117.076 150.396 117.092C150.564 117.108 150.756 117.112 150.972 117.104V117.5C150.74 117.516 150.512 117.516 150.288 117.5C150.072 117.476 149.88 117.416 149.712 117.32C149.544 117.216 149.408 117.064 149.304 116.864C149.208 116.664 149.168 116.388 149.184 116.036V111.728H148.044V111.332H149.184V109.412H149.64V111.332H150.984V111.728ZM157.204 116.276H157.18C157.108 116.46 157.004 116.636 156.868 116.804C156.732 116.964 156.564 117.108 156.364 117.236C156.172 117.364 155.952 117.464 155.704 117.536C155.456 117.608 155.184 117.644 154.888 117.644C154.232 117.644 153.724 117.504 153.364 117.224C153.004 116.936 152.824 116.496 152.824 115.904C152.824 115.544 152.896 115.252 153.04 115.028C153.184 114.796 153.364 114.616 153.58 114.488C153.804 114.352 154.048 114.256 154.312 114.2C154.584 114.144 154.844 114.104 155.092 114.08L155.8 114.02C156.128 113.996 156.384 113.96 156.568 113.912C156.76 113.856 156.904 113.784 157 113.696C157.096 113.6 157.156 113.48 157.18 113.336C157.204 113.192 157.216 113.012 157.216 112.796C157.216 112.628 157.184 112.472 157.12 112.328C157.056 112.184 156.956 112.056 156.82 111.944C156.684 111.832 156.508 111.744 156.292 111.68C156.076 111.616 155.812 111.584 155.5 111.584C154.948 111.584 154.5 111.72 154.156 111.992C153.82 112.264 153.636 112.676 153.604 113.228H153.148C153.18 112.548 153.396 112.04 153.796 111.704C154.204 111.36 154.78 111.188 155.524 111.188C156.268 111.188 156.808 111.336 157.144 111.632C157.488 111.92 157.66 112.3 157.66 112.772V116.36C157.66 116.448 157.66 116.536 157.66 116.624C157.668 116.712 157.684 116.792 157.708 116.864C157.732 116.936 157.772 116.996 157.828 117.044C157.884 117.084 157.964 117.104 158.068 117.104C158.148 117.104 158.26 117.092 158.404 117.068V117.452C158.284 117.484 158.16 117.5 158.032 117.5C157.848 117.5 157.7 117.476 157.588 117.428C157.484 117.38 157.404 117.316 157.348 117.236C157.292 117.156 157.252 117.064 157.228 116.96C157.212 116.848 157.204 116.728 157.204 116.6V116.276ZM157.204 113.996C157.092 114.132 156.92 114.224 156.688 114.272C156.464 114.32 156.212 114.356 155.932 114.38L155.164 114.452C154.94 114.476 154.716 114.512 154.492 114.56C154.268 114.6 154.064 114.672 153.88 114.776C153.704 114.88 153.56 115.024 153.448 115.208C153.336 115.384 153.28 115.616 153.28 115.904C153.28 116.36 153.424 116.7 153.712 116.924C154 117.14 154.396 117.248 154.9 117.248C155.42 117.248 155.832 117.156 156.136 116.972C156.44 116.78 156.672 116.564 156.832 116.324C156.992 116.076 157.092 115.84 157.132 115.616C157.18 115.384 157.204 115.228 157.204 115.148V113.996ZM165.286 117.5H164.83V116.18H164.806C164.726 116.412 164.61 116.62 164.458 116.804C164.314 116.98 164.142 117.132 163.942 117.26C163.75 117.388 163.538 117.484 163.306 117.548C163.074 117.612 162.838 117.644 162.598 117.644C162.238 117.644 161.93 117.6 161.674 117.512C161.426 117.424 161.222 117.308 161.062 117.164C160.902 117.02 160.774 116.86 160.678 116.684C160.59 116.5 160.526 116.316 160.486 116.132C160.446 115.948 160.422 115.772 160.414 115.604C160.406 115.428 160.402 115.276 160.402 115.148V111.332H160.858V115.232C160.858 115.392 160.87 115.588 160.894 115.82C160.918 116.044 160.986 116.264 161.098 116.48C161.218 116.688 161.394 116.868 161.626 117.02C161.858 117.172 162.186 117.248 162.61 117.248C162.954 117.248 163.262 117.184 163.534 117.056C163.814 116.928 164.05 116.752 164.242 116.528C164.434 116.296 164.578 116.024 164.674 115.712C164.778 115.392 164.83 115.044 164.83 114.668V111.332H165.286V117.5ZM168.371 112.7H168.407C168.463 112.5 168.563 112.312 168.707 112.136C168.859 111.96 169.039 111.808 169.247 111.68C169.463 111.552 169.699 111.456 169.955 111.392C170.219 111.32 170.491 111.288 170.771 111.296V111.752C170.531 111.72 170.255 111.744 169.943 111.824C169.639 111.904 169.347 112.08 169.067 112.352C168.955 112.472 168.855 112.588 168.767 112.7C168.687 112.812 168.619 112.936 168.563 113.072C168.507 113.208 168.463 113.36 168.431 113.528C168.399 113.696 168.379 113.896 168.371 114.128V117.5H167.915V111.332H168.371V112.7ZM176.402 116.276H176.378C176.306 116.46 176.202 116.636 176.066 116.804C175.93 116.964 175.762 117.108 175.562 117.236C175.37 117.364 175.15 117.464 174.902 117.536C174.654 117.608 174.382 117.644 174.086 117.644C173.43 117.644 172.922 117.504 172.562 117.224C172.202 116.936 172.022 116.496 172.022 115.904C172.022 115.544 172.094 115.252 172.238 115.028C172.382 114.796 172.562 114.616 172.778 114.488C173.002 114.352 173.246 114.256 173.51 114.2C173.782 114.144 174.042 114.104 174.29 114.08L174.998 114.02C175.326 113.996 175.582 113.96 175.766 113.912C175.958 113.856 176.102 113.784 176.198 113.696C176.294 113.6 176.354 113.48 176.378 113.336C176.402 113.192 176.414 113.012 176.414 112.796C176.414 112.628 176.382 112.472 176.318 112.328C176.254 112.184 176.154 112.056 176.018 111.944C175.882 111.832 175.706 111.744 175.49 111.68C175.274 111.616 175.01 111.584 174.698 111.584C174.146 111.584 173.698 111.72 173.354 111.992C173.018 112.264 172.834 112.676 172.802 113.228H172.346C172.378 112.548 172.594 112.04 172.994 111.704C173.402 111.36 173.978 111.188 174.722 111.188C175.466 111.188 176.006 111.336 176.342 111.632C176.686 111.92 176.858 112.3 176.858 112.772V116.36C176.858 116.448 176.858 116.536 176.858 116.624C176.866 116.712 176.882 116.792 176.906 116.864C176.93 116.936 176.97 116.996 177.026 117.044C177.082 117.084 177.162 117.104 177.266 117.104C177.346 117.104 177.458 117.092 177.602 117.068V117.452C177.482 117.484 177.358 117.5 177.23 117.5C177.046 117.5 176.898 117.476 176.786 117.428C176.682 117.38 176.602 117.316 176.546 117.236C176.49 117.156 176.45 117.064 176.426 116.96C176.41 116.848 176.402 116.728 176.402 116.6V116.276ZM176.402 113.996C176.29 114.132 176.118 114.224 175.886 114.272C175.662 114.32 175.41 114.356 175.13 114.38L174.362 114.452C174.138 114.476 173.914 114.512 173.69 114.56C173.466 114.6 173.262 114.672 173.078 114.776C172.902 114.88 172.758 115.024 172.646 115.208C172.534 115.384 172.478 115.616 172.478 115.904C172.478 116.36 172.622 116.7 172.91 116.924C173.198 117.14 173.594 117.248 174.098 117.248C174.618 117.248 175.03 117.156 175.334 116.972C175.638 116.78 175.87 116.564 176.03 116.324C176.19 116.076 176.29 115.84 176.33 115.616C176.378 115.384 176.402 115.228 176.402 115.148V113.996ZM179.6 111.332H180.056V112.652H180.08C180.16 112.42 180.272 112.216 180.416 112.04C180.568 111.856 180.74 111.7 180.932 111.572C181.132 111.444 181.348 111.348 181.58 111.284C181.812 111.22 182.048 111.188 182.288 111.188C182.648 111.188 182.952 111.232 183.2 111.32C183.456 111.408 183.664 111.524 183.824 111.668C183.984 111.812 184.108 111.976 184.196 112.16C184.292 112.336 184.36 112.516 184.4 112.7C184.44 112.884 184.464 113.064 184.472 113.24C184.48 113.408 184.484 113.556 184.484 113.684V117.5H184.028V113.6C184.028 113.448 184.016 113.256 183.992 113.024C183.968 112.792 183.896 112.572 183.776 112.364C183.664 112.148 183.488 111.964 183.248 111.812C183.016 111.66 182.692 111.584 182.276 111.584C181.924 111.584 181.612 111.648 181.34 111.776C181.068 111.904 180.836 112.084 180.644 112.316C180.452 112.54 180.304 112.812 180.2 113.132C180.104 113.444 180.056 113.788 180.056 114.164V117.5H179.6V111.332ZM189.381 111.728H188.037V116.036C188.037 116.284 188.065 116.48 188.121 116.624C188.177 116.768 188.261 116.88 188.373 116.96C188.493 117.032 188.633 117.076 188.793 117.092C188.961 117.108 189.153 117.112 189.369 117.104V117.5C189.137 117.516 188.909 117.516 188.685 117.5C188.469 117.476 188.277 117.416 188.109 117.32C187.941 117.216 187.805 117.064 187.701 116.864C187.605 116.664 187.565 116.388 187.581 116.036V111.728H186.441V111.332H187.581V109.412H188.037V111.332H189.381V111.728ZM200.782 113.24C200.758 112.968 200.686 112.728 200.566 112.52C200.454 112.312 200.306 112.14 200.122 112.004C199.938 111.868 199.722 111.764 199.474 111.692C199.234 111.62 198.974 111.584 198.694 111.584C198.31 111.584 197.97 111.664 197.674 111.824C197.378 111.976 197.13 112.184 196.93 112.448C196.73 112.704 196.578 113 196.474 113.336C196.37 113.664 196.318 114.004 196.318 114.356C196.318 114.772 196.366 115.156 196.462 115.508C196.558 115.86 196.706 116.168 196.906 116.432C197.106 116.688 197.354 116.888 197.65 117.032C197.946 117.176 198.294 117.248 198.694 117.248C198.982 117.248 199.246 117.2 199.486 117.104C199.734 117.008 199.95 116.876 200.134 116.708C200.326 116.54 200.482 116.34 200.602 116.108C200.722 115.868 200.802 115.608 200.842 115.328H201.298C201.25 115.696 201.15 116.024 200.998 116.312C200.846 116.6 200.654 116.844 200.422 117.044C200.19 117.236 199.926 117.384 199.63 117.488C199.334 117.592 199.022 117.644 198.694 117.644C198.19 117.644 197.758 117.556 197.398 117.38C197.046 117.196 196.754 116.952 196.522 116.648C196.298 116.344 196.13 115.996 196.018 115.604C195.914 115.204 195.862 114.788 195.862 114.356C195.862 113.924 195.922 113.516 196.042 113.132C196.17 112.748 196.354 112.412 196.594 112.124C196.834 111.836 197.13 111.608 197.482 111.44C197.834 111.272 198.238 111.188 198.694 111.188C199.03 111.188 199.342 111.232 199.63 111.32C199.926 111.4 200.186 111.524 200.41 111.692C200.642 111.86 200.83 112.076 200.974 112.34C201.118 112.596 201.206 112.896 201.238 113.24H200.782ZM208.535 117.5H208.079V116.18H208.055C207.975 116.412 207.859 116.62 207.707 116.804C207.563 116.98 207.391 117.132 207.191 117.26C206.999 117.388 206.787 117.484 206.555 117.548C206.323 117.612 206.087 117.644 205.847 117.644C205.487 117.644 205.179 117.6 204.923 117.512C204.675 117.424 204.471 117.308 204.311 117.164C204.151 117.02 204.023 116.86 203.927 116.684C203.839 116.5 203.775 116.316 203.735 116.132C203.695 115.948 203.671 115.772 203.663 115.604C203.655 115.428 203.651 115.276 203.651 115.148V111.332H204.107V115.232C204.107 115.392 204.119 115.588 204.143 115.82C204.167 116.044 204.235 116.264 204.347 116.48C204.467 116.688 204.643 116.868 204.875 117.02C205.107 117.172 205.435 117.248 205.859 117.248C206.203 117.248 206.511 117.184 206.783 117.056C207.063 116.928 207.299 116.752 207.491 116.528C207.683 116.296 207.827 116.024 207.923 115.712C208.027 115.392 208.079 115.044 208.079 114.668V111.332H208.535V117.5ZM211.271 110.168V108.932H211.727V110.168H211.271ZM211.271 117.5V111.332H211.727V117.5H211.271ZM214.685 115.448C214.701 115.736 214.765 115.992 214.877 116.216C214.989 116.432 215.133 116.62 215.309 116.78C215.493 116.932 215.705 117.048 215.945 117.128C216.185 117.208 216.445 117.248 216.725 117.248C216.925 117.248 217.137 117.232 217.361 117.2C217.593 117.16 217.805 117.092 217.997 116.996C218.197 116.9 218.361 116.768 218.489 116.6C218.617 116.424 218.681 116.204 218.681 115.94C218.681 115.596 218.577 115.336 218.369 115.16C218.161 114.984 217.897 114.848 217.577 114.752C217.265 114.656 216.925 114.58 216.557 114.524C216.197 114.46 215.857 114.368 215.537 114.248C215.225 114.128 214.965 113.96 214.757 113.744C214.549 113.52 214.445 113.196 214.445 112.772C214.445 112.468 214.513 112.216 214.649 112.016C214.785 111.808 214.957 111.644 215.165 111.524C215.381 111.404 215.621 111.32 215.885 111.272C216.149 111.216 216.413 111.188 216.677 111.188C216.997 111.188 217.297 111.224 217.577 111.296C217.857 111.368 218.097 111.484 218.297 111.644C218.505 111.804 218.665 112.008 218.777 112.256C218.897 112.504 218.957 112.804 218.957 113.156H218.501C218.501 112.876 218.453 112.636 218.357 112.436C218.269 112.236 218.141 112.076 217.973 111.956C217.813 111.828 217.621 111.736 217.397 111.68C217.173 111.616 216.933 111.584 216.677 111.584C216.469 111.584 216.257 111.604 216.041 111.644C215.833 111.684 215.645 111.752 215.477 111.848C215.309 111.944 215.169 112.068 215.057 112.22C214.953 112.372 214.901 112.556 214.901 112.772C214.901 113.02 214.961 113.22 215.081 113.372C215.201 113.524 215.357 113.648 215.549 113.744C215.749 113.832 215.969 113.904 216.209 113.96C216.457 114.016 216.705 114.072 216.953 114.128C217.257 114.184 217.541 114.252 217.805 114.332C218.077 114.404 218.309 114.508 218.501 114.644C218.701 114.772 218.857 114.94 218.969 115.148C219.081 115.356 219.137 115.62 219.137 115.94C219.137 116.276 219.061 116.552 218.909 116.768C218.757 116.984 218.565 117.16 218.333 117.296C218.101 117.424 217.841 117.512 217.553 117.56C217.273 117.616 216.997 117.644 216.725 117.644C216.373 117.644 216.045 117.596 215.741 117.5C215.445 117.412 215.185 117.276 214.961 117.092C214.737 116.9 214.561 116.668 214.433 116.396C214.305 116.124 214.237 115.808 214.229 115.448H214.685ZM221.644 110.168V108.932H222.1V110.168H221.644ZM221.644 117.5V111.332H222.1V117.5H221.644ZM224.842 111.332H225.298V112.652H225.322C225.402 112.42 225.514 112.216 225.658 112.04C225.81 111.856 225.982 111.7 226.174 111.572C226.374 111.444 226.59 111.348 226.822 111.284C227.054 111.22 227.29 111.188 227.53 111.188C227.89 111.188 228.194 111.232 228.442 111.32C228.698 111.408 228.906 111.524 229.066 111.668C229.226 111.812 229.35 111.976 229.438 112.16C229.534 112.336 229.602 112.516 229.642 112.7C229.682 112.884 229.706 113.064 229.714 113.24C229.722 113.408 229.726 113.556 229.726 113.684V117.5H229.27V113.6C229.27 113.448 229.258 113.256 229.234 113.024C229.21 112.792 229.138 112.572 229.018 112.364C228.906 112.148 228.73 111.964 228.49 111.812C228.258 111.66 227.934 111.584 227.518 111.584C227.166 111.584 226.854 111.648 226.582 111.776C226.31 111.904 226.078 112.084 225.886 112.316C225.694 112.54 225.546 112.812 225.442 113.132C225.346 113.444 225.298 113.788 225.298 114.164V117.5H224.842V111.332ZM232.534 114.476V114.548C232.534 114.908 232.582 115.252 232.678 115.58C232.774 115.908 232.914 116.196 233.098 116.444C233.29 116.692 233.526 116.888 233.806 117.032C234.094 117.176 234.426 117.248 234.802 117.248C235.418 117.248 235.906 117.088 236.266 116.768C236.626 116.44 236.874 115.988 237.01 115.412H237.466C237.33 116.132 237.034 116.684 236.578 117.068C236.13 117.452 235.534 117.644 234.79 117.644C234.334 117.644 233.934 117.564 233.59 117.404C233.254 117.236 232.97 117.012 232.738 116.732C232.514 116.444 232.346 116.108 232.234 115.724C232.122 115.332 232.066 114.912 232.066 114.464C232.066 114.032 232.122 113.62 232.234 113.228C232.354 112.828 232.53 112.48 232.762 112.184C232.994 111.88 233.282 111.64 233.626 111.464C233.978 111.28 234.39 111.188 234.862 111.188C235.294 111.188 235.674 111.268 236.002 111.428C236.338 111.588 236.618 111.808 236.842 112.088C237.066 112.36 237.234 112.68 237.346 113.048C237.466 113.408 237.526 113.796 237.526 114.212C237.526 114.252 237.522 114.3 237.514 114.356C237.514 114.404 237.514 114.444 237.514 114.476H232.534ZM237.058 114.08C237.042 113.744 236.986 113.428 236.89 113.132C236.794 112.828 236.65 112.564 236.458 112.34C236.274 112.108 236.046 111.924 235.774 111.788C235.51 111.652 235.206 111.584 234.862 111.584C234.494 111.584 234.17 111.656 233.89 111.8C233.61 111.936 233.374 112.12 233.182 112.352C232.99 112.576 232.842 112.84 232.738 113.144C232.634 113.448 232.57 113.76 232.546 114.08H237.058ZM240.551 116.264H241.163V117.5C241.163 117.66 241.151 117.816 241.127 117.968C241.103 118.128 241.059 118.276 240.995 118.412C240.939 118.548 240.859 118.668 240.755 118.772C240.659 118.876 240.539 118.956 240.395 119.012V118.616C240.483 118.576 240.551 118.508 240.599 118.412C240.655 118.324 240.699 118.224 240.731 118.112C240.763 118.008 240.783 117.9 240.791 117.788C240.799 117.676 240.803 117.58 240.803 117.5H240.551V116.264ZM253.771 113.24C253.747 112.968 253.675 112.728 253.555 112.52C253.443 112.312 253.295 112.14 253.111 112.004C252.927 111.868 252.711 111.764 252.463 111.692C252.223 111.62 251.963 111.584 251.683 111.584C251.299 111.584 250.959 111.664 250.663 111.824C250.367 111.976 250.119 112.184 249.919 112.448C249.719 112.704 249.567 113 249.463 113.336C249.359 113.664 249.307 114.004 249.307 114.356C249.307 114.772 249.355 115.156 249.451 115.508C249.547 115.86 249.695 116.168 249.895 116.432C250.095 116.688 250.343 116.888 250.639 117.032C250.935 117.176 251.283 117.248 251.683 117.248C251.971 117.248 252.235 117.2 252.475 117.104C252.723 117.008 252.939 116.876 253.123 116.708C253.315 116.54 253.471 116.34 253.591 116.108C253.711 115.868 253.791 115.608 253.831 115.328H254.287C254.239 115.696 254.139 116.024 253.987 116.312C253.835 116.6 253.643 116.844 253.411 117.044C253.179 117.236 252.915 117.384 252.619 117.488C252.323 117.592 252.011 117.644 251.683 117.644C251.179 117.644 250.747 117.556 250.387 117.38C250.035 117.196 249.743 116.952 249.511 116.648C249.287 116.344 249.119 115.996 249.007 115.604C248.903 115.204 248.851 114.788 248.851 114.356C248.851 113.924 248.911 113.516 249.031 113.132C249.159 112.748 249.343 112.412 249.583 112.124C249.823 111.836 250.119 111.608 250.471 111.44C250.823 111.272 251.227 111.188 251.683 111.188C252.019 111.188 252.331 111.232 252.619 111.32C252.915 111.4 253.175 111.524 253.399 111.692C253.631 111.86 253.819 112.076 253.963 112.34C254.107 112.596 254.195 112.896 254.227 113.24H253.771ZM257.095 108.932V112.652H257.119C257.199 112.42 257.311 112.216 257.455 112.04C257.607 111.856 257.779 111.7 257.971 111.572C258.171 111.444 258.387 111.348 258.619 111.284C258.851 111.22 259.087 111.188 259.327 111.188C259.687 111.188 259.991 111.232 260.239 111.32C260.495 111.408 260.703 111.524 260.863 111.668C261.023 111.812 261.147 111.976 261.235 112.16C261.331 112.336 261.399 112.516 261.439 112.7C261.479 112.884 261.503 113.064 261.511 113.24C261.519 113.408 261.523 113.556 261.523 113.684V117.5H261.067V113.6C261.067 113.448 261.055 113.256 261.031 113.024C261.007 112.792 260.935 112.572 260.815 112.364C260.703 112.148 260.527 111.964 260.287 111.812C260.055 111.66 259.731 111.584 259.315 111.584C258.963 111.584 258.651 111.648 258.379 111.776C258.107 111.904 257.875 112.084 257.683 112.316C257.491 112.54 257.343 112.812 257.239 113.132C257.143 113.444 257.095 113.788 257.095 114.164V117.5H256.639V108.932H257.095ZM264.332 114.476V114.548C264.332 114.908 264.38 115.252 264.476 115.58C264.572 115.908 264.712 116.196 264.896 116.444C265.088 116.692 265.324 116.888 265.604 117.032C265.892 117.176 266.224 117.248 266.6 117.248C267.216 117.248 267.704 117.088 268.064 116.768C268.424 116.44 268.672 115.988 268.808 115.412H269.264C269.128 116.132 268.832 116.684 268.376 117.068C267.928 117.452 267.332 117.644 266.588 117.644C266.132 117.644 265.732 117.564 265.388 117.404C265.052 117.236 264.768 117.012 264.536 116.732C264.312 116.444 264.144 116.108 264.032 115.724C263.92 115.332 263.864 114.912 263.864 114.464C263.864 114.032 263.92 113.62 264.032 113.228C264.152 112.828 264.328 112.48 264.56 112.184C264.792 111.88 265.08 111.64 265.424 111.464C265.776 111.28 266.188 111.188 266.66 111.188C267.092 111.188 267.472 111.268 267.8 111.428C268.136 111.588 268.416 111.808 268.64 112.088C268.864 112.36 269.032 112.68 269.144 113.048C269.264 113.408 269.324 113.796 269.324 114.212C269.324 114.252 269.32 114.3 269.312 114.356C269.312 114.404 269.312 114.444 269.312 114.476H264.332ZM268.856 114.08C268.84 113.744 268.784 113.428 268.688 113.132C268.592 112.828 268.448 112.564 268.256 112.34C268.072 112.108 267.844 111.924 267.572 111.788C267.308 111.652 267.004 111.584 266.66 111.584C266.292 111.584 265.968 111.656 265.688 111.8C265.408 111.936 265.172 112.12 264.98 112.352C264.788 112.576 264.64 112.84 264.536 113.144C264.432 113.448 264.368 113.76 264.344 114.08H268.856ZM270.993 111.728V111.332H272.097V110.06C272.097 109.844 272.133 109.66 272.205 109.508C272.277 109.348 272.373 109.22 272.493 109.124C272.621 109.028 272.765 108.956 272.925 108.908C273.093 108.86 273.269 108.836 273.453 108.836C273.589 108.836 273.769 108.856 273.993 108.896V109.292C273.769 109.252 273.589 109.232 273.453 109.232C273.197 109.232 272.981 109.292 272.805 109.412C272.637 109.524 272.553 109.752 272.553 110.096V111.332H273.837V111.728H272.553V117.5H272.097V111.728H270.993Z" fill="black"/>
<rect x="0.25" y="-0.25" width="314.5" height="29.5" rx="3.75" transform="matrix(1 0 0 -1 10 127.5)" stroke="black" stroke-width="0.5"/>
</svg>
